<?xml version="1.0" encoding="UTF-8"?>
<svg id="_圖層_2" data-name="圖層 2" xmlns="http://www.w3.org/2000/svg" viewBox="0 0 212.61 189.74">
  <defs>
    <style>
      .cls-1 {
        fill: #fff;
      }

      .cls-2 {
        fill: #0e64ac;
      }
    </style>
  </defs>
  <g id="_圖層_1-2" data-name="圖層 1">
    <g>
      <path class="cls-1" d="M87.96,10.59L2.87,157.97c-8.15,14.12,2.04,31.77,18.34,31.77h170.18c16.31,0,26.5-17.65,18.34-31.77L124.65,10.59c-8.15-14.12-28.54-14.12-36.69,0Z"/>
      <path class="cls-2" d="M123.87,61.67l-5.48,70.25h-24.71l-2.54-70.25h32.72ZM119.46,152.48c0,1.96-.38,3.78-1.14,5.48-.76,1.69-1.77,3.17-3.04,4.44-1.27,1.27-2.75,2.27-4.44,3-1.69.73-3.49,1.1-5.41,1.1s-3.78-.37-5.48-1.1c-1.69-.74-3.17-1.74-4.44-3-1.27-1.27-2.27-2.75-3-4.44-.73-1.69-1.1-3.52-1.1-5.48s.37-3.74,1.1-5.48c.73-1.74,1.74-3.24,3-4.51s2.75-2.28,4.44-3.04c1.69-.76,3.52-1.14,5.48-1.14s3.72.38,5.41,1.14c1.69.76,3.17,1.77,4.44,3.04s2.28,2.77,3.04,4.51c.76,1.74,1.14,3.56,1.14,5.48Z"/>
    </g>
  </g>
</svg>