<?xml version="1.0" encoding="UTF-8"?>
<svg id="_圖層_2" data-name="圖層 2" xmlns="http://www.w3.org/2000/svg" viewBox="0 0 401.72 91.67">
  <defs>
    <style>
      .cls-1 {
        fill: #231815;
      }
    </style>
  </defs>
  <g id="_圖層_1-2" data-name="圖層 1">
    <g>
      <path class="cls-1" d="M0,91.67V0h4.62v91.67H0ZM13.85,91.67V0h13.85v91.67h-13.85ZM32.32,91.67V0h9.24v91.67h-9.24Z"/>
      <path class="cls-1" d="M50.79,91.67V0h13.85v91.67h-13.85ZM69.26,91.67V0h4.62v91.67h-4.62ZM83.12,91.67V0h9.24v91.67h-9.24Z"/>
      <path class="cls-1" d="M101.58,91.67V0h4.62v91.67h-4.62ZM115.44,91.67V0h13.85v91.67h-13.85ZM133.91,91.67V0h9.24v91.67h-9.24Z"/>
      <path class="cls-1" d="M152.38,91.67V0h9.24v91.67h-9.24ZM166.23,91.67V0h13.85v91.67h-13.85ZM189.32,91.67V0h4.62v91.67h-4.62Z"/>
      <path class="cls-1" d="M203.17,91.67V0h4.62v91.67h-4.62ZM217.02,91.67V0h13.85v91.67h-13.85ZM235.49,91.67V0h9.24v91.67h-9.24Z"/>
      <path class="cls-1" d="M253.96,91.67V0h13.85v91.67h-13.85ZM272.43,91.67V0h4.62v91.67h-4.62ZM286.29,91.67V0h9.24v91.67h-9.24Z"/>
      <path class="cls-1" d="M304.75,91.67V0h4.62v91.67h-4.62ZM318.61,91.67V0h13.85v91.67h-13.85ZM341.7,91.67V0h9.24v91.67h-9.24Z"/>
      <path class="cls-1" d="M355.55,91.67V0h4.62v91.67h-4.62ZM369.4,91.67V0h13.85v91.67h-13.85ZM392.49,91.67V0h9.24v91.67h-9.24Z"/>
    </g>
  </g>
</svg>