<?xml version="1.0" encoding="UTF-8"?>
<svg id="_圖層_2" data-name="圖層 2" xmlns="http://www.w3.org/2000/svg" viewBox="0 0 308.74 251.47">
  <defs>
    <style>
      .cls-1, .cls-2 {
        fill: #fff;
      }

      .cls-3 {
        fill: #0e64ac;
        stroke-linecap: round;
        stroke-linejoin: round;
      }

      .cls-3, .cls-4 {
        stroke: #fff;
        stroke-width: 2px;
      }

      .cls-5 {
        letter-spacing: 0em;
      }

      .cls-2 {
        font-family: Shrikhand-Regular, Shrikhand;
        font-size: 54.15px;
      }

      .cls-4 {
        fill: none;
        stroke-miterlimit: 10;
      }
    </style>
  </defs>
  <g id="_圖層_1-2" data-name="圖層 1">
    <g>
      <path class="cls-1" d="M295.79,2v57.57H2V2h293.79M297.79,0H0v61.57h297.79V0h0Z"/>
      <g>
        <rect class="cls-1" x="26.11" y="22.06" width="245.57" height="9.72"/>
        <path class="cls-1" d="M270.68,23.06v7.72H27.11v-7.72h243.56M272.68,21.06H25.11v11.72h247.56v-11.72h0Z"/>
      </g>
      <rect class="cls-3" x="53.06" y="23.06" width="191.67" height="191.67"/>
      <g>
        <path class="cls-1" d="M187.59,169.4c-.08,3.16-4.71,4.96-6.64,7.65-1.71,2.39-1.44,7.32-4.31,9.17-2.5,1.61-7.06-.5-10.24.57-2.86.97-5.07,5.48-8.35,5.93-3.03.42-6.43-3.27-9.7-3.35s-6.85,3.43-9.86,2.85c-3.25-.62-5.22-5.24-8.03-6.35-3.12-1.24-7.79.64-10.2-1.1-2.77-1.99-2.25-6.9-3.83-9.38-1.78-2.78-6.32-4.82-6.24-7.97.08-3.16,4.71-4.96,6.64-7.65,1.71-2.39,1.44-7.32,4.31-9.17,2.5-1.61,7.06.5,10.24-.57,2.86-.97,5.07-5.48,8.35-5.93,3.03-.42,6.43,3.27,9.7,3.35,3.27.08,6.85-3.43,9.86-2.85,3.25.62,5.22,5.24,8.03,6.35,3.12,1.24,7.79-.64,10.2,1.1,2.77,1.99,2.25,6.9,3.83,9.38,1.78,2.78,6.32,4.82,6.24,7.97Z"/>
        <path class="cls-4" d="M187.59,169.4c-.08,3.16-4.71,4.96-6.64,7.65-1.71,2.39-1.44,7.32-4.31,9.17-2.5,1.61-7.06-.5-10.24.57-2.86.97-5.07,5.48-8.35,5.93-3.03.42-6.43-3.27-9.7-3.35s-6.85,3.43-9.86,2.85c-3.25-.62-5.22-5.24-8.03-6.35-3.12-1.24-7.79.64-10.2-1.1-2.77-1.99-2.25-6.9-3.83-9.38-1.78-2.78-6.32-4.82-6.24-7.97.08-3.16,4.71-4.96,6.64-7.65,1.71-2.39,1.44-7.32,4.31-9.17,2.5-1.61,7.06.5,10.24-.57,2.86-.97,5.07-5.48,8.35-5.93,3.03-.42,6.43,3.27,9.7,3.35,3.27.08,6.85-3.43,9.86-2.85,3.25.62,5.22,5.24,8.03,6.35,3.12,1.24,7.79-.64,10.2,1.1,2.77,1.99,2.25,6.9,3.83,9.38,1.78,2.78,6.32,4.82,6.24,7.97Z"/>
      </g>
      <rect class="cls-4" x="88.07" y="35.97" width="121.65" height="9.11"/>
      <rect class="cls-4" x="88.07" y="57.73" width="121.65" height="9.11"/>
      <rect class="cls-4" x="88.07" y="79.48" width="121.65" height="9.11"/>
      <rect class="cls-4" x="88.07" y="101.23" width="121.65" height="9.11"/>
      <line class="cls-4" x1="88.07" y1="128.05" x2="209.72" y2="128.05"/>
      <g>
        <ellipse class="cls-3" cx="225.37" cy="198.6" rx="83.39" ry="49.63" transform="translate(-34.31 47.61) rotate(-11.21)"/>
        <text class="cls-2" transform="translate(167.45 228.52) rotate(-11.21)"><tspan class="cls-5" x="0" y="0">G</tspan><tspan x="40.45" y="0">ET</tspan></text>
      </g>
    </g>
  </g>
</svg>